<?xml version="1.0" encoding="UTF-8"?>
<svg xmlns="http://www.w3.org/2000/svg" viewBox="0 0 400 400" width="400" height="400">
  <defs>
    <style>
      .un-blue { fill: #009EDB; }
      .white { fill: #FFFFFF; }
    </style>
  </defs>
  <circle cx="200" cy="200" r="190" class="un-blue"/>
  <g transform="translate(200,200)">
    <path d="M-8,60 Q-50,30 -70,-10 Q-80,-30 -75,-55 Q-70,-75 -55,-90"
          fill="none" stroke="#FFFFFF" stroke-width="3"/>
    <ellipse cx="-65" cy="-5" rx="12" ry="6" transform="rotate(-30,-65,-5)" class="white"/>
    <ellipse cx="-72" cy="-30" rx="12" ry="6" transform="rotate(-20,-72,-30)" class="white"/>
    <ellipse cx="-68" cy="-55" rx="12" ry="6" transform="rotate(-10,-68,-55)" class="white"/>
    <ellipse cx="-57" cy="-78" rx="12" ry="6" transform="rotate(5,-57,-78)" class="white"/>
    <ellipse cx="-50" cy="15" rx="12" ry="6" transform="rotate(-40,-50,15)" class="white"/>
    <ellipse cx="-30" cy="38" rx="12" ry="6" transform="rotate(-50,-30,38)" class="white"/>
    <path d="M8,60 Q50,30 70,-10 Q80,-30 75,-55 Q70,-75 55,-90"
          fill="none" stroke="#FFFFFF" stroke-width="3"/>
    <ellipse cx="65" cy="-5" rx="12" ry="6" transform="rotate(30,65,-5)" class="white"/>
    <ellipse cx="72" cy="-30" rx="12" ry="6" transform="rotate(20,72,-30)" class="white"/>
    <ellipse cx="68" cy="-55" rx="12" ry="6" transform="rotate(10,68,-55)" class="white"/>
    <ellipse cx="57" cy="-78" rx="12" ry="6" transform="rotate(-5,57,-78)" class="white"/>
    <ellipse cx="50" cy="15" rx="12" ry="6" transform="rotate(40,50,15)" class="white"/>
    <ellipse cx="30" cy="38" rx="12" ry="6" transform="rotate(50,30,38)" class="white"/>
  </g>
  <text x="200" y="215" text-anchor="middle" font-family="Arial, Helvetica, sans-serif" font-size="42" font-weight="bold" fill="#FFFFFF" letter-spacing="4">UNRWA</text>
</svg>
